<svg xmlns="http://www.w3.org/2000/svg" width="256" height="256" viewBox="0 0 256 256" fill="none">
  <circle cx="128" cy="128" r="92" fill="#0B1220" stroke="#FFFFFF" stroke-width="10"/>
  <path d="M84 196l10-32a70 70 0 1 1 26 12l-36 20Z" stroke="#FFFFFF" stroke-width="10" stroke-linejoin="round"/>
  <path d="M116 104c6 16 20 32 36 40 6 3 10 2 14-2l8-8c2-2 4-2 6-1l14 8c3 2 4 6 2 10-6 12-16 18-30 18-34 0-70-32-82-70-4-12 0-22 10-30 4-3 8-2 10 2l8 14c1 2 1 4-1 6l-8 8c-4 4-4 8-1 14Z" fill="#FF8A00"/>
</svg>
